<svg width="113" height="18" viewBox="0 0 113 18" fill="none" xmlns="http://www.w3.org/2000/svg">
<path d="M16.9355 1V17H0.999492V1L12.436 1" stroke="#1565D8"/>
<path d="M14.6073 14.9075H12.8892V3.38834L14.6073 2.43566V14.9075Z" fill="#1565D8" stroke="#1565D8" stroke-width="0.243269"/>
<path d="M11.4218 14.907H9.70367V5.19542L11.4218 4.3893V14.907Z" fill="#1565D8" stroke="#1565D8" stroke-width="0.243269"/>
<path d="M8.23426 14.9105H6.51617V6.78106L8.23426 6.10319V14.9105Z" fill="#1565D8" stroke="#1565D8" stroke-width="0.243269"/>
<path d="M5.04676 14.9101H3.32867V8.13727L5.04676 7.56932V14.9101Z" fill="#1565D8" stroke="#1565D8" stroke-width="0.243269"/>
<path d="M26.0081 16.1664C25.272 16.1664 24.657 16.0252 24.1629 15.7429C23.6688 15.4505 23.2957 15.027 23.0436 14.4724C22.7915 13.9178 22.6504 13.2372 22.6201 12.4305L24.541 12.0524C24.5612 12.5263 24.6166 12.9447 24.7074 13.3077C24.8082 13.6707 24.9544 13.9531 25.146 14.1547C25.3477 14.3463 25.6098 14.4421 25.9325 14.4421C26.2955 14.4421 26.5526 14.3362 26.7039 14.1245C26.8551 13.9027 26.9308 13.6254 26.9308 13.2926C26.9308 12.7582 26.8098 12.3196 26.5678 11.9767C26.3258 11.6339 26.0031 11.2911 25.5998 10.9482L24.057 9.587C23.6234 9.21391 23.2755 8.80049 23.0134 8.34674C22.7613 7.88291 22.6353 7.3132 22.6353 6.63762C22.6353 5.66962 22.9176 4.92345 23.4823 4.39912C24.0469 3.87478 24.8183 3.61262 25.7964 3.61262C26.3711 3.61262 26.8501 3.70337 27.2333 3.88487C27.6164 4.05628 27.9189 4.29828 28.1408 4.61087C28.3727 4.92345 28.5441 5.28141 28.655 5.68474C28.7659 6.07799 28.8365 6.49645 28.8668 6.94012L26.961 7.27287C26.9408 6.8897 26.8955 6.54687 26.8249 6.24437C26.7644 5.94187 26.6484 5.70491 26.477 5.53349C26.3157 5.36208 26.0737 5.27637 25.751 5.27637C25.4183 5.27637 25.1611 5.38728 24.9796 5.60912C24.8082 5.82087 24.7225 6.08808 24.7225 6.41074C24.7225 6.82416 24.8082 7.16699 24.9796 7.43924C25.151 7.70141 25.3981 7.97366 25.7208 8.25599L27.2484 9.60212C27.7525 10.0256 28.1811 10.5247 28.534 11.0995C28.897 11.6642 29.0785 12.3498 29.0785 13.1565C29.0785 13.7413 28.9474 14.2606 28.6853 14.7144C28.4332 15.1681 28.0752 15.5261 27.6114 15.7882C27.1576 16.0403 26.6232 16.1664 26.0081 16.1664ZM29.2938 16L31.7441 3.74874H34.1338L36.5841 16H34.5119L34.0279 13.1716H31.8953L31.3962 16H29.2938ZM32.1222 11.7499H33.7859L32.9541 6.60737L32.1222 11.7499ZM37.3927 16V3.74874H39.6312V14.4572H42.5957V16H37.3927ZM43.3352 16V3.74874H48.4777V5.32174H45.5737V8.84587H47.8576V10.4037H45.5737V14.4572H48.508V16H43.3352ZM52.4667 16.1664C51.7306 16.1664 51.1156 16.0252 50.6215 15.7429C50.1274 15.4505 49.7543 15.027 49.5022 14.4724C49.2501 13.9178 49.109 13.2372 49.0787 12.4305L50.9996 12.0524C51.0198 12.5263 51.0752 12.9447 51.166 13.3077C51.2668 13.6707 51.413 13.9531 51.6046 14.1547C51.8063 14.3463 52.0684 14.4421 52.3911 14.4421C52.7541 14.4421 53.0112 14.3362 53.1625 14.1245C53.3137 13.9027 53.3894 13.6254 53.3894 13.2926C53.3894 12.7582 53.2684 12.3196 53.0264 11.9767C52.7844 11.6339 52.4617 11.2911 52.0584 10.9482L50.5156 9.587C50.082 9.21391 49.7341 8.80049 49.472 8.34674C49.2199 7.88291 49.0939 7.3132 49.0939 6.63762C49.0939 5.66962 49.3762 4.92345 49.9409 4.39912C50.5055 3.87478 51.2769 3.61262 52.255 3.61262C52.8297 3.61262 53.3087 3.70337 53.6919 3.88487C54.075 4.05628 54.3775 4.29828 54.5994 4.61087C54.8313 4.92345 55.0027 5.28141 55.1136 5.68474C55.2245 6.07799 55.2951 6.49645 55.3254 6.94012L53.4196 7.27287C53.3994 6.8897 53.3541 6.54687 53.2835 6.24437C53.223 5.94187 53.107 5.70491 52.9356 5.53349C52.7743 5.36208 52.5323 5.27637 52.2096 5.27637C51.8769 5.27637 51.6197 5.38728 51.4382 5.60912C51.2668 5.82087 51.1811 6.08808 51.1811 6.41074C51.1811 6.82416 51.2668 7.16699 51.4382 7.43924C51.6096 7.70141 51.8567 7.97366 52.1794 8.25599L53.707 9.60212C54.2112 10.0256 54.6397 10.5247 54.9926 11.0995C55.3556 11.6642 55.5371 12.3498 55.5371 13.1565C55.5371 13.7413 55.406 14.2606 55.1439 14.7144C54.8918 15.1681 54.5338 15.5261 54.07 15.7882C53.6162 16.0403 53.0818 16.1664 52.4667 16.1664ZM56.2199 16V13.9279H58.2164V16H56.2199ZM62.3727 16.1664C61.6366 16.1664 61.0215 16.0252 60.5274 15.7429C60.0333 15.4505 59.6602 15.027 59.4082 14.4724C59.1561 13.9178 59.0149 13.2372 58.9847 12.4305L60.9055 12.0524C60.9257 12.5263 60.9812 12.9447 61.0719 13.3077C61.1728 13.6707 61.319 13.9531 61.5105 14.1547C61.7122 14.3463 61.9744 14.4421 62.297 14.4421C62.66 14.4421 62.9172 14.3362 63.0684 14.1245C63.2197 13.9027 63.2953 13.6254 63.2953 13.2926C63.2953 12.7582 63.1743 12.3196 62.9323 11.9767C62.6903 11.6339 62.3676 11.2911 61.9643 10.9482L60.4215 9.587C59.988 9.21391 59.6401 8.80049 59.3779 8.34674C59.1258 7.88291 58.9998 7.3132 58.9998 6.63762C58.9998 5.66962 59.2821 4.92345 59.8468 4.39912C60.4115 3.87478 61.1828 3.61262 62.1609 3.61262C62.7357 3.61262 63.2146 3.70337 63.5978 3.88487C63.981 4.05628 64.2835 4.29828 64.5053 4.61087C64.7372 4.92345 64.9086 5.28141 65.0195 5.68474C65.1305 6.07799 65.201 6.49645 65.2313 6.94012L63.3255 7.27287C63.3054 6.8897 63.26 6.54687 63.1894 6.24437C63.1289 5.94187 63.013 5.70491 62.8415 5.53349C62.6802 5.36208 62.4382 5.27637 62.1155 5.27637C61.7828 5.27637 61.5257 5.38728 61.3442 5.60912C61.1728 5.82087 61.087 6.08808 61.087 6.41074C61.087 6.82416 61.1728 7.16699 61.3442 7.43924C61.5156 7.70141 61.7626 7.97366 62.0853 8.25599L63.6129 9.60212C64.1171 10.0256 64.5456 10.5247 64.8985 11.0995C65.2615 11.6642 65.443 12.3498 65.443 13.1565C65.443 13.7413 65.312 14.2606 65.0498 14.7144C64.7977 15.1681 64.4398 15.5261 63.9759 15.7882C63.5222 16.0403 62.9878 16.1664 62.3727 16.1664ZM69.6953 16.1664C68.7878 16.1664 68.082 16 67.5778 15.6672C67.0736 15.3345 66.7258 14.8606 66.5342 14.2455C66.3426 13.6304 66.2468 12.8943 66.2468 12.0372V3.74874H68.4248V12.2944C68.4248 12.6775 68.45 13.0405 68.5004 13.3834C68.5508 13.7161 68.6668 13.9884 68.8483 14.2001C69.0399 14.4018 69.3222 14.5026 69.6953 14.5026C70.0885 14.5026 70.3709 14.4018 70.5423 14.2001C70.7238 13.9884 70.8398 13.7161 70.8902 13.3834C70.9507 13.0405 70.9809 12.6775 70.9809 12.2944V3.74874H73.1438V12.0372C73.1438 12.8943 73.048 13.6304 72.8564 14.2455C72.6648 14.8606 72.317 15.3345 71.8128 15.6672C71.3187 16 70.6129 16.1664 69.6953 16.1664ZM74.4809 16V3.74874H78.0807C78.8168 3.74874 79.4117 3.88487 79.8655 4.15712C80.3293 4.42937 80.6671 4.82766 80.8788 5.35199C81.1007 5.86624 81.2116 6.49141 81.2116 7.22749C81.2116 8.02408 81.0755 8.66941 80.8032 9.1635C80.531 9.6475 80.1478 10.0004 79.6537 10.2222C79.1697 10.4441 78.595 10.555 77.9295 10.555H76.7194V16H74.4809ZM76.7194 8.982H77.5665C77.9698 8.982 78.2824 8.92654 78.5042 8.81562C78.7361 8.69462 78.8924 8.50808 78.9731 8.25599C79.0638 7.99383 79.1092 7.64595 79.1092 7.21237C79.1092 6.7687 79.0739 6.41074 79.0033 6.13849C78.9428 5.85616 78.8017 5.64945 78.5798 5.51837C78.3681 5.38728 78.0303 5.32174 77.5665 5.32174H76.7194V8.982ZM82.0335 16V3.74874H85.6333C86.3694 3.74874 86.9643 3.88487 87.418 4.15712C87.8819 4.42937 88.2197 4.82766 88.4314 5.35199C88.6532 5.86624 88.7642 6.49141 88.7642 7.22749C88.7642 8.02408 88.628 8.66941 88.3558 9.1635C88.0835 9.6475 87.7004 10.0004 87.2063 10.2222C86.7223 10.4441 86.1475 10.555 85.482 10.555H84.272V16H82.0335ZM84.272 8.982H85.119C85.5224 8.982 85.8349 8.92654 86.0568 8.81562C86.2887 8.69462 86.445 8.50808 86.5257 8.25599C86.6164 7.99383 86.6618 7.64595 86.6618 7.21237C86.6618 6.7687 86.6265 6.41074 86.5559 6.13849C86.4954 5.85616 86.3542 5.64945 86.1324 5.51837C85.9207 5.38728 85.5829 5.32174 85.119 5.32174H84.272V8.982ZM92.9136 16.1664C92.0464 16.1664 91.3557 16.005 90.8415 15.6824C90.3272 15.3597 89.9592 14.8959 89.7374 14.2909C89.5155 13.6859 89.4046 12.97 89.4046 12.1431V7.56024C89.4046 6.73341 89.5155 6.02758 89.7374 5.44274C89.9592 4.84783 90.3272 4.39408 90.8415 4.08149C91.3557 3.76891 92.0464 3.61262 92.9136 3.61262C93.8009 3.61262 94.4967 3.76891 95.0009 4.08149C95.5151 4.39408 95.8832 4.84783 96.105 5.44274C96.3369 6.02758 96.4529 6.73341 96.4529 7.56024V12.1582C96.4529 12.975 96.3369 13.6859 96.105 14.2909C95.8832 14.8858 95.5151 15.3496 95.0009 15.6824C94.4967 16.005 93.8009 16.1664 92.9136 16.1664ZM92.9136 14.5177C93.2867 14.5177 93.5589 14.4371 93.7304 14.2757C93.9119 14.1144 94.0329 13.8926 94.0934 13.6102C94.1539 13.3279 94.1841 13.0204 94.1841 12.6876V7.04599C94.1841 6.70316 94.1539 6.39562 94.0934 6.12337C94.0329 5.85112 93.9119 5.63937 93.7304 5.48812C93.5589 5.32678 93.2867 5.24612 92.9136 5.24612C92.5607 5.24612 92.2935 5.32678 92.112 5.48812C91.9305 5.63937 91.8095 5.85112 91.749 6.12337C91.6885 6.39562 91.6582 6.70316 91.6582 7.04599V12.6876C91.6582 13.0204 91.6834 13.3279 91.7339 13.6102C91.7944 13.8926 91.9154 14.1144 92.0969 14.2757C92.2784 14.4371 92.5506 14.5177 92.9136 14.5177ZM97.6852 16V3.74874H100.619C101.446 3.74874 102.142 3.84957 102.707 4.05124C103.281 4.24283 103.715 4.57558 104.007 5.04949C104.31 5.52341 104.461 6.16874 104.461 6.98549C104.461 7.47958 104.416 7.92324 104.325 8.31649C104.234 8.70975 104.078 9.04754 103.856 9.32987C103.644 9.60212 103.347 9.81387 102.964 9.96512L104.673 16H102.434L100.952 10.3886H99.9237V16H97.6852ZM99.9237 8.982H100.619C101.053 8.982 101.396 8.9215 101.648 8.8005C101.91 8.66941 102.097 8.46774 102.208 8.19549C102.318 7.91316 102.374 7.5552 102.374 7.12162C102.374 6.50654 102.258 6.04774 102.026 5.74524C101.804 5.43266 101.376 5.27637 100.74 5.27637H99.9237V8.982ZM106.906 16V5.39737H104.955V3.74874H111.065V5.39737H109.145V16H106.906Z" fill="#1565D8"/>
</svg>
